<?xml version="1.0" encoding="utf-8"?>
<!-- Generator: Adobe Illustrator 16.0.0, SVG Export Plug-In . SVG Version: 6.00 Build 0)  -->
<!DOCTYPE svg PUBLIC "-//W3C//DTD SVG 1.1//EN" "http://www.w3.org/Graphics/SVG/1.1/DTD/svg11.dtd">
<svg version="1.1" id="Layer_1" xmlns="http://www.w3.org/2000/svg" xmlns:xlink="http://www.w3.org/1999/xlink" x="0px" y="0px"
	 width="792px" height="612px" viewBox="0 0 792 612" enable-background="new 0 0 792 612" xml:space="preserve">
<g>
	<path d="M123.256,319.4v-0.155c0-16.149,12.749-28.204,29.828-28.204c9.272,0,16.769,3.091,22.64,8.191l-10.121,12.209
		c-3.555-3.014-7.496-4.714-11.978-4.714c-7.032,0-12.132,5.409-12.132,12.75v0.154c0,7.65,5.332,12.904,12.904,12.904
		c3.092,0,4.791-0.463,6.182-1.236v-5.409h-9.271v-11.59h26.193v25.034c-5.872,4.793-14.062,8.113-23.876,8.113
		C136.779,347.448,123.256,336.168,123.256,319.4z"/>
	<path d="M211.653,327.127L191.254,292.2h20.245l9.273,17.773l9.35-17.773h20.014l-20.4,34.696v19.396h-18.082V327.127z"/>
	<path d="M264.216,292.385h18.854l11.592,19.01l11.591-19.01h18.854v54.09h-18.004v-26.813l-12.441,19.241h-0.309l-12.441-19.241
		v26.813h-17.695V292.385z"/>
	<path d="M468.077,293.042H485l19.241,23.877v-23.877h17.928v54.091h-16.074l-20.09-24.96v24.96h-17.928V293.042z"/>
	<path d="M543.6,322.55v-29.827h18.392v29.595c0,6.723,3.477,9.581,8.346,9.581c4.867,0,8.344-2.627,8.344-9.194v-29.982h18.392
		v29.441c0,18.467-10.74,25.73-26.891,25.73C554.03,347.895,543.6,340.478,543.6,322.55z"/>
	<path d="M634.743,308.342h-15.918v-15.3h49.918v15.3h-15.918v38.791h-18.082V308.342z"/>
	<g>
		<path d="M439.238,285.922l-14.624-8.443l8.697-15.058c3.365-5.837,3.717-11.926,0.965-16.699c-2.76-4.772-8.21-7.515-14.949-7.515
			h-45.648c-6.739,0-12.188,2.743-14.949,7.515c-2.75,4.773-2.398,10.862,0.966,16.699l8.696,15.058l-14.623,8.443
			c-3.862,2.238-7.029,7.714-7.029,12.179v41.229c0,4.467,3.167,9.943,7.029,12.179l35.707,20.606
			c3.861,2.236,10.193,2.236,14.056,0l35.707-20.606c3.86-2.235,7.028-7.712,7.028-12.179v-41.229
			C446.267,293.636,443.108,288.16,439.238,285.922z M370.449,252.489c0.108-0.145,1.011-0.75,3.229-0.75h45.648
			c2.22,0,3.122,0.604,3.222,0.75c0.081,0.162,0.153,1.245-0.956,3.166l-8.697,15.058l-9.364-5.404
			c-3.862-2.228-10.194-2.228-14.056,0l-9.365,5.404l-8.697-15.058C370.306,253.734,370.376,252.651,370.449,252.489z
			 M395.601,351.193c-17.934,0-32.477-14.541-32.477-32.477c0-10.962,5.43-20.66,13.758-26.542c3.688-2.607,7.939-4.466,12.539-5.35
			c1.994-0.388,4.07-0.586,6.18-0.586c2.688,0,5.297,0.325,7.795,0.938c4.511,1.109,8.644,3.167,12.197,5.937
			c7.596,5.945,12.485,15.21,12.485,25.604C428.078,336.652,413.536,351.193,395.601,351.193z"/>
	</g>
	<circle cx="395.12" cy="318.65" r="24.383"/>
</g>
</svg>
