<?xml version="1.0" encoding="utf-8"?>
<!-- Generator: Adobe Illustrator 16.0.0, SVG Export Plug-In . SVG Version: 6.00 Build 0)  -->
<!DOCTYPE svg PUBLIC "-//W3C//DTD SVG 1.1//EN" "http://www.w3.org/Graphics/SVG/1.1/DTD/svg11.dtd">
<svg version="1.1" id="Layer_1" xmlns="http://www.w3.org/2000/svg" xmlns:xlink="http://www.w3.org/1999/xlink" x="0px" y="0px"
	 width="792px" height="612px" viewBox="0 0 792 612" enable-background="new 0 0 792 612" xml:space="preserve">
<g>
	<path fill="#F15B2B" d="M123.257,319.4v-0.155c0-16.149,12.75-28.204,29.828-28.204c9.272,0,16.768,3.091,22.64,8.191
		l-10.122,12.209c-3.555-3.014-7.496-4.714-11.978-4.714c-7.032,0-12.132,5.409-12.132,12.75v0.154
		c0,7.65,5.333,12.904,12.905,12.904c3.091,0,4.791-0.463,6.182-1.236v-5.409h-9.272v-11.59h26.194v25.034
		c-5.873,4.793-14.063,8.113-23.876,8.113C136.78,347.448,123.257,336.168,123.257,319.4z"/>
	<path fill="#F15B2B" d="M211.655,327.127l-20.4-34.927H211.5l9.273,17.773l9.35-17.773h20.014l-20.4,34.696v19.396h-18.082V327.127
		z"/>
	<path fill="#F15B2B" d="M264.216,292.385h18.854l11.591,19.01l11.591-19.01h18.855v54.09h-18.005v-26.813l-12.441,19.241h-0.309
		l-12.441-19.241v26.813h-17.696V292.385z"/>
	<path fill="#F15B2B" d="M468.078,293.042h16.923l19.241,23.877v-23.877h17.928v54.091h-16.074l-20.09-24.96v24.96h-17.927V293.042z
		"/>
	<path fill="#F15B2B" d="M543.601,322.55v-29.827h18.391v29.595c0,6.723,3.477,9.581,8.346,9.581c4.868,0,8.345-2.627,8.345-9.194
		v-29.982h18.391v29.441c0,18.467-10.74,25.73-26.891,25.73C554.032,347.895,543.601,340.478,543.601,322.55z"/>
	<path fill="#F15B2B" d="M634.744,308.342h-15.917v-15.3h49.918v15.3h-15.918v38.791h-18.083V308.342z"/>
	<g>
		<path fill="#F15B2B" d="M439.239,285.922l-14.624-8.443l8.696-15.058c3.366-5.837,3.717-11.926,0.965-16.699
			c-2.76-4.772-8.21-7.515-14.949-7.515H373.68c-6.74,0-12.189,2.743-14.949,7.515c-2.751,4.773-2.399,10.862,0.965,16.699
			l8.696,15.058l-14.624,8.443c-3.862,2.238-7.028,7.714-7.028,12.179v41.229c0,4.467,3.167,9.943,7.028,12.179l35.708,20.606
			c3.861,2.236,10.194,2.236,14.056,0l35.707-20.606c3.861-2.235,7.028-7.712,7.028-12.179v-41.229
			C446.268,293.636,443.109,288.16,439.239,285.922z M370.45,252.489c0.108-0.145,1.011-0.75,3.23-0.75h45.648
			c2.219,0,3.122,0.604,3.221,0.75c0.081,0.162,0.153,1.245-0.957,3.166l-8.697,15.058l-9.364-5.404
			c-3.862-2.228-10.194-2.228-14.056,0l-9.365,5.404l-8.697-15.058C370.306,253.734,370.377,252.651,370.45,252.489z
			 M395.602,351.193c-17.935,0-32.478-14.541-32.478-32.477c0-10.962,5.431-20.66,13.758-26.542
			c3.688-2.607,7.939-4.466,12.539-5.35c1.994-0.388,4.07-0.586,6.18-0.586c2.688,0,5.296,0.325,7.794,0.938
			c4.511,1.109,8.644,3.167,12.198,5.937c7.596,5.945,12.485,15.21,12.485,25.604C428.079,336.652,413.537,351.193,395.602,351.193z
			"/>
	</g>
	<circle fill="#F15B2B" cx="395.121" cy="318.65" r="24.383"/>
</g>
</svg>
